<svg xmlns="http://www.w3.org/2000/svg" xmlns:xlink="http://www.w3.org/1999/xlink" width="21" height="21" viewBox="0 0 21 21">
  <defs>
    <style>
      .cls-1 {
        fill-rule: evenodd;
        filter: url(#filter);
      }
    </style>
    <filter id="filter" x="1326" y="41" width="21" height="21" filterUnits="userSpaceOnUse">
      <feFlood result="flood" flood-color="#f6a312"/>
      <feComposite result="composite" operator="in" in2="SourceGraphic"/>
      <feBlend result="blend" in2="SourceGraphic"/>
    </filter>
  </defs>
  <path id="Forma_1" data-name="Forma 1" class="cls-1" d="M1346.45,57.2l-4.25-2.835a1.239,1.239,0,0,0-1.66.27l-1.24,1.592a0.532,0.532,0,0,1-.68.143l-0.24-.13a14.15,14.15,0,0,1-3.7-2.914,14.415,14.415,0,0,1-2.92-3.709l-0.13-.236a0.529,0.529,0,0,1,.14-0.681l1.59-1.238a1.237,1.237,0,0,0,.27-1.661l-2.83-4.251a1.232,1.232,0,0,0-1.66-.374l-1.78,1.068a2.478,2.478,0,0,0-1.14,1.484c-0.64,2.333-.16,6.358,5.77,12.287,4.71,4.716,8.22,5.984,10.64,5.984a6.233,6.233,0,0,0,1.64-.215,2.486,2.486,0,0,0,1.48-1.143l1.07-1.776A1.234,1.234,0,0,0,1346.45,57.2Zm-0.23,1.305-1.07,1.778a1.775,1.775,0,0,1-1.06.827c-2.16.591-5.92,0.1-11.61-5.591s-6.18-9.453-5.59-11.606a1.8,1.8,0,0,1,.83-1.069l1.78-1.066a0.534,0.534,0,0,1,.72.162l1.54,2.312,1.29,1.939a0.545,0.545,0,0,1-.12.721l-1.59,1.238a1.227,1.227,0,0,0-.32,1.572l0.12,0.229a15,15,0,0,0,3.04,3.871,14.838,14.838,0,0,0,3.87,3.033l0.23,0.127a1.222,1.222,0,0,0,1.57-.325l1.24-1.591a0.536,0.536,0,0,1,.72-0.117l4.25,2.835A0.531,0.531,0,0,1,1346.22,58.506Zm-8.32-14a5.964,5.964,0,0,1,5.95,5.95,0.346,0.346,0,0,0,.35.35,0.352,0.352,0,0,0,.35-0.35,6.661,6.661,0,0,0-6.65-6.649A0.35,0.35,0,1,0,1337.9,44.5Zm0,2.1a3.856,3.856,0,0,1,3.85,3.849,0.35,0.35,0,0,0,.7,0,4.554,4.554,0,0,0-4.55-4.549A0.35,0.35,0,1,0,1337.9,46.6Zm0,2.1a1.755,1.755,0,0,1,1.75,1.749,0.35,0.35,0,0,0,.7,0A2.453,2.453,0,0,0,1337.9,48,0.35,0.35,0,1,0,1337.9,48.7Z" transform="translate(-1326 -41)"/>
</svg>
